<svg width="42" height="22" viewBox="0 0 42 22" fill="none" xmlns="http://www.w3.org/2000/svg">
<path d="M6.71047 18.0235L5.5405 21.0355L5.17173 21.9597C5.16703 21.9722 4.43163 21.9976 4.43163 21.9976C4.42887 21.9805 4.42458 21.9636 4.41881 21.9472C4.0781 21.1514 3.73682 20.3557 3.39497 19.5602C3.38515 19.5372 3.38087 19.5097 3.34882 19.5029C3.34364 19.5104 3.33894 19.5182 3.33472 19.5263L2.27457 21.9976H1.54814C1.55797 21.9459 1.52592 21.904 1.50883 21.8596C1.3154 21.3673 1.12183 20.8761 0.928116 20.3862C0.664039 19.7137 0.399819 19.0419 0.135457 18.3709L0.132039 18.362L0.0192289 18.0783L0 18.0291C0.309372 18.0291 0.619599 18.0291 0.928971 18.0219C1.01059 18.0219 1.02939 18.0622 1.05204 18.1195C1.26398 18.646 1.47692 19.1724 1.69086 19.6986C1.7712 19.8947 1.8511 20.0908 1.94212 20.314C1.96819 20.2583 1.98485 20.2252 1.99895 20.1929C2.29323 19.5104 2.58764 18.8287 2.8822 18.1478C2.94459 18.0041 2.91169 18.0267 3.08261 18.0239C3.29627 18.0239 3.50992 18.0239 3.72657 18.0239C3.85006 18.0239 3.85049 18.0239 3.89749 18.1336C4.17866 18.814 4.45969 19.4947 4.74057 20.1756C4.75681 20.2159 4.77604 20.2563 4.80381 20.3176C4.82817 20.2636 4.84654 20.2305 4.85851 20.1966L5.72082 18.1469C5.77252 18.0235 5.77295 18.0235 5.90713 18.0235H6.71047Z" fill="white"/>
<path d="M16.4609 20.5449C16.4609 19.73 16.4609 18.915 16.4609 18.0998C16.4609 17.9828 16.4609 17.982 16.3395 17.9816C16.0832 17.9816 15.8268 17.9876 15.5704 17.9783C15.4486 17.9739 15.3807 18.0086 15.3183 18.1115C14.9264 18.7572 14.5265 19.3984 14.1282 20.0405C14.1039 20.0808 14.0885 20.1268 14.0359 20.1547C14.0081 20.1099 13.9838 20.074 13.9616 20.0336C13.577 19.3831 13.195 18.7334 12.816 18.0808C12.8014 18.047 12.7756 18.0185 12.7423 17.9999C12.709 17.9812 12.6702 17.9734 12.6318 17.9775C12.3519 17.984 12.072 17.9775 11.7921 17.9804C11.6126 17.9804 11.6293 17.9602 11.6293 18.1369C11.6293 19.3398 11.6293 20.5426 11.6293 21.7455C11.6293 21.829 11.6315 21.9129 11.6327 21.9965H12.5301V19.6377C12.5754 19.6466 12.5818 19.6745 12.5942 19.6958C13.0317 20.4327 13.469 21.1697 13.906 21.9069C13.9162 21.9263 13.9251 21.9464 13.9325 21.967C13.9731 21.99 13.9898 21.9634 14.0073 21.9355L14.2855 21.4916C14.6558 20.8998 15.0268 20.3091 15.3986 19.7196C15.4183 19.673 15.4518 19.6326 15.4952 19.6034V19.7108C15.4952 20.4242 15.4952 21.1372 15.4952 21.8496C15.4952 21.898 15.4977 21.9464 15.499 21.9949H16.4519C16.4643 21.9478 16.4677 21.899 16.4618 21.8508C16.4615 21.4166 16.4612 20.9813 16.4609 20.5449Z" fill="white"/>
<path d="M10.8479 21.2019C9.98473 21.2019 9.12142 21.2019 8.25797 21.2019C8.12636 21.2019 8.1255 21.2019 8.12508 21.0836C8.12508 20.8722 8.12508 20.6603 8.12508 20.4488C8.12508 20.3342 8.12508 20.3338 8.24686 20.3326H8.31651C8.86261 20.3326 9.40871 20.3326 9.95482 20.3326C10.0625 20.3326 10.0642 20.3326 10.0646 20.2329C10.0646 20.0437 10.0646 19.854 10.0646 19.6643C10.0646 19.5404 10.0646 19.5513 9.93943 19.5505C9.61297 19.5485 9.28608 19.5505 8.95961 19.5505C8.7169 19.5505 8.47419 19.5505 8.23319 19.5505C8.12892 19.5505 8.12721 19.5481 8.12636 19.4468C8.12636 19.2705 8.12636 19.0941 8.12636 18.9178C8.12636 18.8266 8.12892 18.8245 8.22891 18.8245C8.54598 18.8245 8.86347 18.8245 9.18096 18.8245C9.73618 18.8245 10.2917 18.8245 10.8475 18.8245C10.9539 18.8245 10.9551 18.8245 10.956 18.7224C10.956 18.5372 10.956 18.352 10.956 18.1672C10.956 18.0183 10.9748 18.0259 10.8043 18.0259C9.64687 18.0259 8.48957 18.0259 7.33242 18.0259C7.12346 18.0259 7.15166 18.0041 7.15166 18.1914C7.15166 19.4604 7.15166 20.7297 7.15166 21.9993H11.018C11.018 21.7878 11.0231 21.5763 11.0231 21.3649C11.0205 21.1784 11.041 21.2039 10.8479 21.2019Z" fill="white"/>
<path d="M40.0626 19.5413C40.7086 19.0288 41.3545 18.5159 42 18.0025V17.9763C41.6154 17.9763 41.2347 17.9828 40.8522 17.9787C40.7505 17.9752 40.6511 18.0082 40.574 18.0712C39.9881 18.5223 39.3999 18.9708 38.8097 19.4166C38.7763 19.4416 38.7511 19.4876 38.6892 19.4739V19.3669C38.6892 18.9392 38.6892 18.5116 38.6892 18.0841C38.6892 17.9836 38.687 17.982 38.5802 17.9816C38.3281 17.9816 38.0761 17.9816 37.8243 17.9816C37.7166 17.9816 37.7166 17.9816 37.7141 18.0829C37.7141 18.1091 37.7141 18.1357 37.7141 18.1636V21.5623C37.7141 21.668 37.717 21.7741 37.7141 21.8794C37.7115 21.9468 37.7346 21.9723 37.8089 21.9715C38.0704 21.9678 38.3315 21.9682 38.593 21.9715C38.6627 21.9715 38.7003 21.9553 38.6913 21.8831C38.6895 21.8562 38.6895 21.8292 38.6913 21.8024C38.6913 21.4362 38.6913 21.0703 38.6913 20.7047C38.6913 20.6644 38.6802 20.6163 38.7268 20.5836C38.884 20.4736 39.0407 20.3626 39.1968 20.2507C39.2026 20.2453 39.2097 20.2413 39.2174 20.2389C39.2252 20.2366 39.2334 20.236 39.2414 20.2372C39.2495 20.2384 39.2571 20.2414 39.2637 20.2459C39.2702 20.2505 39.2756 20.2564 39.2793 20.2632C39.2964 20.2842 39.3143 20.3036 39.3323 20.325C39.7855 20.8461 40.2385 21.3673 40.6911 21.8887C40.7108 21.9151 40.7372 21.9364 40.7679 21.9505C40.7986 21.9646 40.8326 21.9711 40.8668 21.9694C41.1936 21.965 41.5205 21.9694 41.847 21.9666C41.8761 21.9666 41.9124 21.9836 41.9325 21.948C41.9142 21.9074 41.8872 21.8708 41.853 21.8407C41.2496 21.1342 40.6458 20.4277 40.0416 19.7213C39.9583 19.624 39.9378 19.6402 40.0626 19.5413Z" fill="white"/>
<path d="M21.266 21.4949C20.7063 20.3819 20.1478 19.2687 19.5906 18.1551C19.5384 18.0502 19.479 18.0139 19.3598 18.0212C19.1922 18.0308 19.0241 18.0308 18.8564 18.0212C18.7436 18.0151 18.6855 18.0494 18.6368 18.1499C18.1851 19.0821 17.7262 20.0111 17.2694 20.9416C17.0985 21.2927 16.9276 21.6454 16.7588 21.9973H17.6831C17.8382 21.7011 17.9946 21.4061 18.1458 21.1095C18.1787 21.0453 18.2245 21.0345 18.2907 21.0349C18.6919 21.0349 19.0936 21.0349 19.4953 21.0349C19.626 21.0349 19.7568 21.0349 19.8875 21.0349C19.9104 21.0324 19.9336 21.037 19.9534 21.0481C19.9732 21.0592 19.9887 21.0761 19.9974 21.0962C20.1478 21.3847 20.3012 21.6717 20.4529 21.9598C20.4566 21.9729 20.4579 21.9866 20.4567 22.0001H21.4934C21.5139 21.9598 21.4831 21.9336 21.4682 21.9033C21.4024 21.7669 21.334 21.6301 21.266 21.4949ZM18.5137 20.3246L19.0868 19.2649C19.2829 19.6333 19.4632 19.9735 19.6512 20.327L18.5137 20.3246Z" fill="white"/>
<path d="M27.01 19.9631C26.9647 19.9344 26.9087 19.9187 26.8745 19.8763C26.878 19.8691 26.8788 19.8646 26.8818 19.8622C26.9002 19.8485 26.9186 19.8352 26.9374 19.8219C27.1749 19.6604 27.3151 19.4449 27.3348 19.1681C27.3775 18.5955 27.0784 18.1709 26.4934 18.0353C26.3112 17.9965 26.1247 17.9785 25.9379 17.9817C25.0975 17.9817 24.2571 17.9817 23.4168 17.9817C23.2937 17.9817 23.292 17.9817 23.292 18.0959C23.292 19.348 23.292 20.6002 23.292 21.8525C23.292 21.9675 23.292 21.9675 23.4146 21.9687H23.4706C24.2551 21.9687 25.0395 21.9687 25.8238 21.9687C25.9918 21.9697 26.1598 21.9613 26.3267 21.9437C26.9989 21.8707 27.5014 21.4393 27.4664 20.7254C27.4634 20.5725 27.4201 20.4228 27.3404 20.2897C27.2607 20.1566 27.1471 20.0443 27.01 19.9631V19.9631ZM24.2667 18.8876C24.2667 18.7912 24.2692 18.788 24.3641 18.788C24.8632 18.788 25.3626 18.7886 25.8623 18.79C25.9557 18.7888 26.0488 18.8012 26.1383 18.8267C26.2985 18.8751 26.3686 18.9756 26.366 19.1495C26.3635 19.3138 26.2891 19.4118 26.1344 19.457C26.0215 19.4852 25.9047 19.4974 25.7879 19.4934C25.5777 19.4954 25.3679 19.4934 25.1576 19.4934C24.8965 19.4934 24.635 19.4934 24.3735 19.4934C24.2688 19.4934 24.2675 19.4909 24.2667 19.3892C24.2655 19.2224 24.2655 19.0552 24.2667 18.8876V18.8876ZM26.2515 21.0866C26.0862 21.1588 25.9071 21.1616 25.7302 21.1673C25.5388 21.1721 25.3456 21.1673 25.1559 21.1673C24.8995 21.1673 24.6431 21.1673 24.3868 21.1673C24.2692 21.1673 24.2675 21.1673 24.2671 21.0615C24.2671 20.8364 24.2671 20.6116 24.2671 20.3868C24.2671 20.3239 24.2889 20.3029 24.3556 20.3033C24.8683 20.3061 25.3811 20.3033 25.8939 20.3089C26.0063 20.3099 26.1176 20.3295 26.2229 20.3666C26.3904 20.426 26.4707 20.545 26.4793 20.7113C26.4878 20.8775 26.4207 21.0131 26.2515 21.0866Z" fill="white"/>
<path d="M37.0152 17.9798C36.7956 17.9835 36.5764 17.9798 36.3568 17.9798C36.1961 17.9798 36.2076 17.9673 36.2076 18.1243C36.2076 18.8294 36.2076 19.5347 36.2076 20.2401C36.2076 20.2841 36.2234 20.3333 36.1777 20.3854C36.138 20.3426 36.1055 20.3047 36.0696 20.2704C35.3076 19.537 34.546 18.8036 33.7848 18.0702C33.7566 18.039 33.721 18.0143 33.681 17.9983C33.6409 17.9822 33.5975 17.9752 33.554 17.9778C33.372 17.9843 33.19 17.9778 33.0079 17.9798C32.837 17.9798 32.846 17.9625 32.846 18.1259V21.8156C32.846 21.8422 32.846 21.8684 32.846 21.8963C32.843 21.9447 32.8627 21.9689 32.9178 21.9685C33.1699 21.9685 33.422 21.9685 33.6741 21.9685C33.7263 21.9685 33.7532 21.952 33.7515 21.9007C33.7515 21.8652 33.7515 21.8301 33.7515 21.7946C33.7515 21.0851 33.7515 20.3754 33.7515 19.6655C33.745 19.6178 33.7486 19.5694 33.7621 19.523C33.81 19.5274 33.828 19.5634 33.8527 19.5856C34.0207 19.7446 34.1873 19.9052 34.3548 20.065C34.9907 20.6735 35.6265 21.2825 36.2623 21.8918C36.2864 21.918 36.3164 21.9386 36.3502 21.952C36.384 21.9654 36.4206 21.9714 36.4572 21.9693C36.6281 21.9641 36.8029 21.9693 36.9755 21.9693C37.1118 21.9693 37.1118 21.9693 37.1131 21.8394V18.1485C37.1131 18.1219 37.111 18.0953 37.1131 18.0678C37.1199 18 37.0875 17.9786 37.0152 17.9798Z" fill="white"/>
<path d="M31.5511 20.2535C31.1871 19.5295 30.8236 18.8055 30.4606 18.0816C30.4243 18.0085 30.3824 17.9758 30.2936 17.9791C30.1026 17.9855 29.909 17.9863 29.7201 17.9791C29.6265 17.9754 29.5808 18.0045 29.5415 18.0852C28.929 19.3405 28.3147 20.595 27.6985 21.8487C27.6819 21.883 27.6498 21.9149 27.669 21.9697C27.9451 21.9697 28.2245 21.9697 28.5027 21.9697C28.5715 21.9697 28.5882 21.9258 28.6091 21.8834C28.7488 21.6195 28.8916 21.3588 29.0266 21.0908C29.0392 21.0586 29.0629 21.0314 29.0939 21.0136C29.125 20.9958 29.1615 20.9884 29.1975 20.9928C29.706 20.9964 30.2145 20.9972 30.723 20.9928C30.8204 20.9928 30.8717 21.0186 30.914 21.1041C31.0448 21.3668 31.1871 21.6247 31.3251 21.8842C31.3477 21.9274 31.3631 21.9705 31.4315 21.9701C31.7486 21.9673 32.0656 21.9701 32.3934 21.9701C32.3901 21.9248 32.3755 21.8808 32.3506 21.8418C32.0837 21.3116 31.8172 20.7821 31.5511 20.2535ZM29.4304 20.2938C29.4411 20.205 29.8577 19.4169 29.9859 19.2446L30.5444 20.2938H29.4304Z" fill="white"/>
<path d="M23.4795 13.0628C23.4975 13.0318 23.512 12.9991 23.5278 12.9672L29.2662 1.18926C29.3132 1.09321 29.3606 0.997571 29.4067 0.901123C29.423 0.868032 29.4392 0.838976 29.4862 0.83938C29.5918 0.83938 29.6977 0.83938 29.8182 0.83938C29.7917 0.899912 29.7755 0.944706 29.7533 0.987885C27.7073 5.20039 25.6615 9.41276 23.6158 13.625C23.5342 13.7929 23.45 13.9603 23.3714 14.1294C23.3022 14.2787 23.3125 14.424 23.427 14.5507C23.4768 14.6099 23.5435 14.6542 23.6193 14.6786C23.6951 14.7029 23.7766 14.7061 23.8543 14.6879C24.0252 14.6552 24.1107 14.5435 24.1773 14.4055C26.219 10.2094 28.26 6.01408 30.3002 1.8196C30.4951 1.41928 30.6848 1.01775 30.8857 0.619042C30.9959 0.397898 30.9066 0.086763 30.5989 0.0266343V0H29.0581C29.0595 0.00410041 29.0601 0.0084567 29.0597 0.0127734C29.0592 0.0170902 29.0578 0.0212663 29.0555 0.0250198C28.888 0.0597249 28.7991 0.171508 28.7303 0.307503C28.5024 0.776157 28.2745 1.24468 28.0466 1.71306C26.4263 5.05282 24.8042 8.39178 23.1804 11.7299C23.1573 11.778 23.133 11.8252 23.1052 11.8809C23.0411 11.8405 23.0403 11.7735 23.0056 11.7263C22.8869 11.5649 22.9159 11.416 23.0018 11.2396C24.6734 7.80596 26.3399 4.37029 28.0013 0.932599C28.0535 0.824449 28.1073 0.716701 28.159 0.609761C28.2812 0.353105 28.1509 0.0964479 27.8624 0.0225986C27.861 0.0148969 27.8578 0.00758962 27.853 0.00121059H26.3425C26.3448 0.00952132 26.3436 0.0183655 26.3391 0.025827C26.1724 0.0577073 26.0737 0.161823 26.0062 0.301047C25.7458 0.837766 25.485 1.37422 25.2238 1.9104L21.7904 8.97249C21.7746 9.00437 21.7583 9.03584 21.737 9.077C21.6677 9.00759 21.6515 8.91881 21.6045 8.84819C21.5165 8.71664 21.5306 8.5992 21.6002 8.45675C22.8577 5.88508 24.1111 3.31178 25.3605 0.736878C25.414 0.627113 25.4541 0.517752 25.4246 0.393056C25.4081 0.312534 25.3653 0.238915 25.3023 0.182534C25.2392 0.126153 25.159 0.0898401 25.073 0.0786917C25.0219 0.0729666 24.9705 0.0706741 24.9191 0.0718315C24.5269 0.0718315 24.1346 0.0786921 23.7428 0.069007C23.4889 0.0625502 23.3321 0.165051 23.23 0.378124C22.5417 1.79969 21.8508 3.22058 21.1571 4.6408C20.9118 5.14524 20.6666 5.64967 20.4213 6.15411C20.4042 6.19002 20.3837 6.22432 20.3555 6.27719C20.2871 6.13595 20.2273 6.00923 20.1636 5.88212C20.1401 5.83329 20.1764 5.79737 20.1948 5.76105C20.3973 5.33975 20.6009 4.91898 20.8054 4.49875C21.423 3.22516 22.0405 1.95142 22.6578 0.677557C22.7433 0.502417 22.7181 0.328488 22.5907 0.198546C22.5557 0.159818 22.5123 0.128618 22.4634 0.107042C22.4145 0.0854647 22.3614 0.0740102 22.3074 0.073446C21.8451 0.073446 21.3827 0.0698141 20.9204 0.073446C20.7217 0.073446 20.5931 0.184422 20.5127 0.349473L20.0512 1.29821C19.7188 1.98263 19.3859 2.66638 19.0526 3.34945C19.0359 3.38415 19.0287 3.42612 18.9821 3.45155L18.6364 2.74413C18.2608 1.97174 17.8822 1.20015 17.5122 0.425339C17.4267 0.243339 17.3258 0.0835344 17.1237 0.00121059H16.9276C16.8921 0.0447938 16.8327 0.0520576 16.7883 0.0819202C16.6434 0.180386 16.5708 0.309118 16.5926 0.479415C16.6055 0.53988 16.6281 0.598125 16.6597 0.652134C17.2579 1.88591 17.8561 3.11929 18.4544 4.35227C18.4744 4.38621 18.4853 4.42426 18.4861 4.46309C18.4869 4.50193 18.4776 4.54036 18.4591 4.57502C17.7324 6.0625 17.0079 7.55065 16.2858 9.03947C16.2748 9.0729 16.2553 9.10326 16.2289 9.12785C16.1935 9.08389 16.1658 9.03484 16.1469 8.98257C14.7547 6.12061 13.3627 3.25838 11.9708 0.39588C11.9492 0.347195 11.9235 0.300231 11.8939 0.255446C11.7657 0.0746564 11.5332 0.0133169 11.3422 0.110168C11.12 0.221548 11.0371 0.433007 11.1333 0.646887C11.1499 0.68361 11.1683 0.719123 11.1854 0.755442L15.7781 10.2227C15.7963 10.264 15.8167 10.3044 15.8392 10.3437C16.0132 10.6262 16.4033 10.6335 16.5892 10.3603C16.6223 10.3072 16.6515 10.252 16.6768 10.1952L18.9137 5.60932C18.931 5.56173 18.9564 5.51715 18.9889 5.47736C19.0543 5.56573 19.0834 5.66904 19.1389 5.75984C19.1842 5.83329 19.1735 5.89664 19.1368 5.97049C18.9428 6.36153 18.7522 6.75459 18.5633 7.14683C17.8796 8.55199 17.1959 9.95714 16.5122 11.3623C16.4826 11.4175 16.467 11.4784 16.4666 11.5402C16.4663 11.6021 16.4811 11.6632 16.5101 11.7186C16.5464 11.7905 16.581 11.8627 16.6157 11.9349C16.7981 12.3163 16.9814 12.6972 17.1618 13.0794C17.2224 13.2077 17.3139 13.3001 17.4609 13.3356C17.6972 13.3925 17.8929 13.3046 17.9997 13.0883C18.2219 12.6367 18.4411 12.1843 18.6616 11.7319C19.2029 10.6192 19.745 9.50678 20.288 8.3946C20.3055 8.35869 20.3115 8.3139 20.3623 8.29049C20.408 8.38452 20.4448 8.47572 20.4948 8.55966C20.5448 8.64359 20.5349 8.71018 20.4948 8.79371C19.6359 10.5578 18.7781 12.3229 17.9215 14.0891C17.9001 14.1331 17.8766 14.1766 17.86 14.2222C17.839 14.2752 17.8303 14.3318 17.8344 14.3883C17.8386 14.4447 17.8555 14.4996 17.8841 14.5494C17.9126 14.5991 17.9522 14.6424 18 14.6765C18.0478 14.7106 18.1028 14.7346 18.1612 14.7469C18.3685 14.7973 18.5621 14.7065 18.6612 14.5047C18.8891 14.0406 19.115 13.5763 19.3389 13.1117C19.8767 12.007 20.4149 10.9025 20.9533 9.79814C20.9729 9.75779 20.9789 9.70573 21.0362 9.68192C21.0699 9.75012 21.1016 9.81388 21.1327 9.87764C21.1973 10.0096 21.2575 10.144 21.3276 10.2731C21.3619 10.3415 21.4158 10.3994 21.4833 10.4402C21.5508 10.4811 21.6291 10.5031 21.7092 10.504C21.8848 10.51 22.0083 10.4232 22.098 10.2856C22.1232 10.2434 22.1458 10.1999 22.166 10.1553L26.3681 1.53348C26.4676 1.32929 26.5673 1.12523 26.6673 0.9213C26.6869 0.880945 26.7002 0.836959 26.7617 0.840591C26.8634 0.84503 26.9659 0.832116 27.0698 0.849065C27.0741 0.918878 27.0313 0.970129 27.0053 1.0238C25.676 3.76308 24.346 6.50183 23.015 9.24004C22.6803 9.92876 22.3454 10.6173 22.0104 11.3058C21.9827 11.3545 21.9669 11.4084 21.9641 11.4637C21.9613 11.5189 21.9716 11.574 21.9942 11.625C22.2221 12.1036 22.4509 12.5813 22.6805 13.058C22.7587 13.2194 22.9014 13.29 23.086 13.2913C23.168 13.2937 23.2491 13.2734 23.319 13.2328C23.389 13.1922 23.4448 13.1331 23.4795 13.0628ZM19.5141 4.37123C19.6921 4.0032 19.8713 3.63529 20.0517 3.26753C20.4187 2.51572 20.7875 1.76472 21.1498 1.01089C21.1926 0.919686 21.2456 0.883367 21.3485 0.894666C21.4314 0.898818 21.5144 0.898818 21.5972 0.894666L19.6684 4.86558C19.5983 4.72232 19.5432 4.60731 19.4863 4.49351C19.4628 4.44589 19.4974 4.40957 19.5158 4.37123H19.5141ZM19.8248 7.37686C19.5684 7.9055 19.312 8.43361 19.0556 8.96119C18.5995 9.90118 18.1431 10.842 17.6865 11.7836C17.6617 11.8349 17.6361 11.8853 17.6032 11.9519C17.5939 11.9427 17.5853 11.9328 17.5775 11.9224C17.5181 11.7981 17.4237 11.6775 17.41 11.5487C17.3972 11.4277 17.5028 11.3143 17.5587 11.1989C18.235 9.80016 18.9124 8.40254 19.591 7.006C19.6085 6.95464 19.6376 6.90753 19.6765 6.86798C19.7406 7.00035 19.8047 7.12666 19.8628 7.25378C19.8833 7.30059 19.8474 7.33812 19.8265 7.37686H19.8248ZM21.0349 7.6771C20.9665 7.53747 20.9131 7.42528 20.8563 7.3139C20.8264 7.25539 20.8618 7.211 20.8845 7.16459C21.1041 6.71181 21.3246 6.25957 21.546 5.80786C22.3219 4.21519 23.0978 2.62239 23.8735 1.02945C23.8872 1.00161 23.9026 0.974165 23.9162 0.945513C23.9223 0.9292 23.9341 0.915323 23.9496 0.906157C23.9651 0.896992 23.9835 0.893082 24.0017 0.895069C24.1038 0.895069 24.2055 0.895069 24.3286 0.895069L21.0349 7.6771Z" fill="white"/>
</svg>
